<svg width="1886" height="496" viewBox="0 0 1886 496" fill="none" xmlns="http://www.w3.org/2000/svg">
<path d="M259.363 198.227C246.933 176.932 230.072 160.072 208.776 147.642C187.477 135.213 164.225 129 139.004 129C113.786 129 90.5276 135.213 69.2318 147.642C47.9349 160.07 31.0741 176.93 18.644 198.227C6.21318 219.526 0 242.784 0 268.001C0 293.218 6.21508 316.473 18.6421 337.773C31.0716 359.068 47.9323 375.928 69.2293 388.359C90.5276 400.787 113.784 407.001 139.002 407.001C164.22 407.001 187.479 400.787 208.776 388.359C230.071 375.933 246.932 359.068 259.36 337.773C271.787 316.475 278 293.217 278 268.001C278.001 242.781 271.787 219.522 259.363 198.227ZM229.132 246.825L130.856 345.101C128.564 347.396 125.79 348.542 122.53 348.542C119.394 348.542 116.68 347.396 114.386 345.101L48.8655 279.584C46.6962 277.41 45.609 274.701 45.609 271.44C45.609 268.062 46.6923 265.285 48.8655 263.112L65.3357 246.825C67.6312 244.532 70.3425 243.386 73.4817 243.386C76.621 243.386 79.3361 244.533 81.6278 246.825L122.532 287.728L196.376 214.066C198.669 211.773 201.383 210.626 204.52 210.626C207.655 210.626 210.373 211.773 212.664 214.066L229.135 230.356C231.31 232.526 232.393 235.301 232.393 238.679C232.393 241.938 231.31 244.653 229.132 246.825Z" fill="#73D79C"/>
<path d="M323.528 385H384.876V262.304L426.818 385H478.15L519.779 263.243V385H581.127V164.335H507.259L453.11 307.689L397.709 164.335H323.528V385ZM606.033 297.047C606.033 353.074 639.211 387.191 680.84 387.191C705.567 387.191 723.408 376.236 732.485 360.586V385H793.833V209.407H732.485V233.821C723.408 218.171 705.88 207.216 680.84 207.216C639.211 207.216 606.033 241.02 606.033 297.047ZM732.485 297.047C732.485 320.835 717.774 333.668 700.559 333.668C683.031 333.668 668.633 320.522 668.633 297.047C668.633 273.259 683.031 260.739 700.559 260.739C717.774 260.739 732.485 273.572 732.485 297.047ZM828.791 385H890.139V313.01L938.654 385H1013.46L943.036 297.673L1012.21 209.407H938.654L890.139 278.267V153.38H828.791V385ZM1110.32 255.731C1124.41 255.731 1136.61 264.182 1136.61 279.832H1082.46C1085.28 263.869 1095.61 255.731 1110.32 255.731ZM1195.46 324.278H1130.04C1126.6 331.477 1120.02 338.05 1108.13 338.05C1094.36 338.05 1083.4 329.912 1082.15 309.567H1198.27C1198.9 304.872 1199.21 299.864 1199.21 295.169C1199.21 240.707 1162.59 207.216 1110.63 207.216C1058.05 207.216 1021.43 241.333 1021.43 297.047C1021.43 353.074 1058.68 387.191 1110.63 387.191C1154.45 387.191 1187.32 360.273 1195.46 324.278ZM1285.67 308.315C1285.67 281.397 1299.75 273.259 1325.11 273.259H1342.32V207.842C1318.85 207.842 1298.81 221.301 1285.67 240.394V209.407H1224.32V385H1285.67V308.315ZM1364.31 385H1425.66V153.38H1364.31V385ZM1634.63 297.047C1634.63 241.333 1594.88 207.216 1542.6 207.216C1490.33 207.216 1450.58 241.333 1450.58 297.047C1450.58 353.074 1490.02 387.191 1542.29 387.191C1594.56 387.191 1634.63 353.074 1634.63 297.047ZM1513.18 297.047C1513.18 272.007 1526.95 260.426 1542.6 260.426C1558.25 260.426 1572.34 272.007 1572.34 297.047C1572.34 322.4 1557.94 333.981 1542.29 333.981C1526.33 333.981 1513.18 322.4 1513.18 297.047ZM1649.57 297.047C1649.57 353.074 1682.75 387.191 1724.38 387.191C1749.1 387.191 1766.94 376.236 1776.02 360.586V383.122C1776.02 410.353 1761.94 418.178 1744.72 418.178C1729.07 418.178 1718.43 411.605 1715.93 400.337H1655.52C1659.9 443.844 1693.7 471.388 1748.48 471.388C1811.7 471.388 1837.37 430.072 1837.37 383.122V209.407H1776.02V233.821C1766.94 218.171 1749.1 207.216 1724.38 207.216C1682.75 207.216 1649.57 241.02 1649.57 297.047ZM1776.02 297.047C1776.02 320.835 1761.31 333.668 1744.1 333.668C1726.57 333.668 1712.17 320.522 1712.17 297.047C1712.17 273.259 1726.57 260.739 1744.1 260.739C1761.31 260.739 1776.02 273.572 1776.02 297.047Z" fill="#73D79C"/>
<path d="M715.8 70.88C715.8 52.8 688.68 55.52 688.68 47.12C688.68 44.4 690.52 43.04 692.84 43.12C695.72 43.12 697.88 44.72 698.04 48.24H715.08C714.52 37.04 706.04 30.72 693.08 30.72C681.16 30.72 671.96 36.64 671.96 47.68C671.72 67.28 699.08 63.04 699.16 72.08C699.16 74.72 697 76.16 694.2 76.16C691.32 76.16 688.84 74.72 688.52 70.48H671.8C672.44 82.56 682.2 88.56 694.76 88.56C708.12 88.56 715.8 80.8 715.8 70.88ZM769.009 43.12H753.249V67.2C753.249 72.4 750.369 75.44 745.809 75.44C741.329 75.44 738.369 72.4 738.369 67.2V43.12H722.769V69.2C722.769 81.04 729.249 88.4 739.649 88.4C745.969 88.4 750.689 85.44 753.249 81.6V88H769.009V43.12ZM793.613 49.36V43.12H777.933V109.44H793.613V81.76C796.013 85.68 800.413 88.56 806.733 88.56C817.453 88.56 825.853 79.84 825.853 65.52C825.853 51.2 817.453 42.56 806.733 42.56C800.493 42.56 795.933 45.36 793.613 49.36ZM809.933 65.52C809.933 71.52 806.173 74.88 801.773 74.88C797.373 74.88 793.613 71.6 793.613 65.52C793.613 59.52 797.373 56.24 801.773 56.24C806.173 56.24 809.933 59.44 809.933 65.52ZM847.988 49.36V43.12H832.308V109.44H847.988V81.76C850.388 85.68 854.788 88.56 861.108 88.56C871.828 88.56 880.228 79.84 880.228 65.52C880.228 51.2 871.828 42.56 861.108 42.56C854.868 42.56 850.308 45.36 847.988 49.36ZM864.308 65.52C864.308 71.52 860.548 74.88 856.148 74.88C851.748 74.88 847.988 71.6 847.988 65.52C847.988 59.52 851.748 56.24 856.148 56.24C860.548 56.24 864.308 59.44 864.308 65.52ZM931.163 65.52C931.163 51.28 921.003 42.56 907.643 42.56C894.283 42.56 884.123 51.28 884.123 65.52C884.123 79.84 894.203 88.56 907.563 88.56C920.923 88.56 931.163 79.84 931.163 65.52ZM900.123 65.52C900.123 59.12 903.643 56.16 907.643 56.16C911.643 56.16 915.243 59.12 915.243 65.52C915.243 72 911.563 74.96 907.563 74.96C903.483 74.96 900.123 72 900.123 65.52ZM953.223 68.4C953.223 61.52 956.823 59.44 963.303 59.44H967.703V42.72C961.703 42.72 956.582 46.16 953.223 51.04V43.12H937.543V88H953.223V68.4ZM975.804 70.96C975.804 83.84 983.084 88 993.004 88H999.804V74.64H995.244C992.604 74.64 991.564 73.6 991.564 71.2V56.16H999.724V43.12H991.564V32.24H975.804V43.12H970.284V56.16H975.804V70.96ZM1027.16 54.96C1030.76 54.96 1033.88 57.12 1033.88 61.12H1020.04C1020.76 57.04 1023.4 54.96 1027.16 54.96ZM1048.92 72.48H1032.2C1031.32 74.32 1029.64 76 1026.6 76C1023.08 76 1020.28 73.92 1019.96 68.72H1049.64C1049.8 67.52 1049.88 66.24 1049.88 65.04C1049.88 51.12 1040.52 42.56 1027.24 42.56C1013.8 42.56 1004.44 51.28 1004.44 65.52C1004.44 79.84 1013.96 88.56 1027.24 88.56C1038.44 88.56 1046.84 81.68 1048.92 72.48ZM1053.73 65.52C1053.73 79.84 1062.21 88.56 1072.85 88.56C1079.17 88.56 1083.65 85.76 1085.97 81.76V88H1101.73V28.8H1085.97V49.28C1083.49 45.2 1078.85 42.56 1072.93 42.56C1062.21 42.56 1053.73 51.2 1053.73 65.52ZM1086.05 65.52C1086.05 71.6 1082.29 74.88 1077.89 74.88C1073.41 74.88 1069.73 71.52 1069.73 65.52C1069.73 59.44 1073.41 56.24 1077.89 56.24C1082.29 56.24 1086.05 59.52 1086.05 65.52ZM1141.66 49.36V28.8H1125.98V88H1141.66V81.76C1144.06 85.84 1148.46 88.56 1154.78 88.56C1165.5 88.56 1173.9 79.84 1173.9 65.52C1173.9 51.2 1165.5 42.56 1154.78 42.56C1148.54 42.56 1144.06 45.28 1141.66 49.36ZM1157.98 65.52C1157.98 71.52 1154.22 74.88 1149.82 74.88C1145.42 74.88 1141.66 71.6 1141.66 65.52C1141.66 59.52 1145.42 56.24 1149.82 56.24C1154.22 56.24 1157.98 59.44 1157.98 65.52ZM1202.36 68.56L1192.92 43.12H1175.47L1193.88 86.08L1183.16 109.36H1200.2L1228.68 43.12H1211.48L1202.36 68.56Z" fill="white"/>
</svg>