<svg width="404" height="75" viewBox="0 0 404 75" fill="none" xmlns="http://www.w3.org/2000/svg">
<path d="M57.0286 15.1642C54.2955 10.4996 50.5882 6.80623 45.9057 4.08354C41.2223 1.36099 36.1098 0 30.5642 0C25.0192 0 19.9052 1.36099 15.2227 4.08354C10.5399 6.80581 6.83257 10.4991 4.09943 15.1642C1.36615 19.8296 0 24.9244 0 30.4481C0 35.972 1.36657 41.0659 4.09901 45.7316C6.83201 50.3963 10.5393 54.0896 15.2221 56.8126C19.9052 59.535 25.0188 60.8961 30.5637 60.8961C36.1086 60.8961 41.2227 59.535 45.9055 56.8126C50.588 54.0906 54.2952 50.3963 57.0281 45.7316C59.7605 41.0663 61.1265 35.9717 61.1265 30.4481C61.1267 24.9238 59.7605 19.8289 57.0286 15.1642ZM50.3814 25.8095L28.7727 47.3368C28.2685 47.8395 27.6587 48.0906 26.9419 48.0906C26.2522 48.0906 25.6555 47.8395 25.1512 47.3368L10.7445 32.9854C10.2675 32.5092 10.0285 31.9157 10.0285 31.2014C10.0285 30.4615 10.2667 29.8532 10.7445 29.3773L14.366 25.8095C14.8707 25.3073 15.4669 25.0563 16.1571 25.0563C16.8474 25.0563 17.4444 25.3075 17.9483 25.8095L26.9423 34.7693L43.1791 18.6336C43.6832 18.1313 44.28 17.8801 44.9698 17.8801C45.6591 17.8801 46.2568 18.1313 46.7605 18.6336L50.382 22.202C50.8604 22.6774 51.0985 23.2852 51.0985 24.0251C51.0985 24.739 50.8604 25.3337 50.3814 25.8095Z" fill="#73D79C"/>
<path d="M71.1372 56.0767H84.6264V29.2002L93.8485 56.0767H105.135L114.289 29.4059V56.0767H127.778V7.74012H111.536L99.6296 39.1418L87.4481 7.74012H71.1372V56.0767Z" fill="#73D79C"/>
<path d="M133.254 36.8107C133.254 49.0834 140.549 56.5567 149.703 56.5567C155.14 56.5567 159.063 54.157 161.058 50.7289V56.0767H174.548V17.6131H161.058V22.961C159.063 19.5329 155.208 17.1332 149.703 17.1332C140.549 17.1332 133.254 24.538 133.254 36.8107ZM161.058 36.8107C161.058 42.0214 157.824 44.8325 154.038 44.8325C150.184 44.8325 147.019 41.9528 147.019 36.8107C147.019 31.5999 150.184 28.8574 154.038 28.8574C157.824 28.8574 161.058 31.6685 161.058 36.8107Z" fill="#73D79C"/>
<path d="M182.234 56.0767H195.723V40.3073L206.391 56.0767H222.839L207.354 36.9478L222.564 17.6131H206.391L195.723 32.6969V5.34043H182.234V56.0767Z" fill="#73D79C"/>
<path d="M244.137 27.7604C247.234 27.7604 249.918 29.6116 249.918 33.0397H238.012C238.631 29.543 240.902 27.7604 244.137 27.7604ZM262.857 42.7756H248.473C247.716 44.3525 246.271 45.7923 243.655 45.7923C240.627 45.7923 238.218 44.0097 237.943 39.5532H263.476C263.614 38.5247 263.683 37.4277 263.683 36.3993C263.683 24.4694 255.63 17.1332 244.206 17.1332C232.644 17.1332 224.592 24.6065 224.592 36.8107C224.592 49.0834 232.781 56.5567 244.206 56.5567C253.841 56.5567 261.067 50.6603 262.857 42.7756Z" fill="#73D79C"/>
<path d="M282.692 39.2789C282.692 33.3825 285.789 31.5999 291.364 31.5999H295.149V17.2703C289.987 17.2703 285.583 20.2185 282.692 24.4008V17.6131H269.203V56.0767H282.692V39.2789Z" fill="#73D79C"/>
<path d="M299.985 56.0767H313.474V5.34043H299.985V56.0767Z" fill="#73D79C"/>
<path d="M359.421 36.8107C359.421 24.6065 350.68 17.1332 339.187 17.1332C327.694 17.1332 318.953 24.6065 318.953 36.8107C318.953 49.0834 327.625 56.5567 339.118 56.5567C350.612 56.5567 359.421 49.0834 359.421 36.8107ZM332.718 36.8107C332.718 31.3256 335.746 28.7888 339.187 28.7888C342.628 28.7888 345.725 31.3256 345.725 36.8107C345.725 42.3642 342.559 44.901 339.118 44.901C335.608 44.901 332.718 42.3642 332.718 36.8107Z" fill="#73D79C"/>
<path d="M362.707 36.8107C362.707 49.0834 370.002 56.5567 379.155 56.5567C384.592 56.5567 388.515 54.157 390.511 50.7289V55.6654C390.511 61.6303 387.414 63.3444 383.629 63.3444C380.188 63.3444 377.848 61.9046 377.297 59.4363H364.014C364.978 68.9665 372.411 75 384.454 75C398.357 75 404 65.9497 404 55.6654V17.6131H390.511V22.961C388.515 19.5329 384.592 17.1332 379.155 17.1332C370.002 17.1332 362.707 24.538 362.707 36.8107ZM390.511 36.8107C390.511 42.0214 387.276 44.8325 383.491 44.8325C379.637 44.8325 376.471 41.9528 376.471 36.8107C376.471 31.5999 379.637 28.8574 383.491 28.8574C387.276 28.8574 390.511 31.6685 390.511 36.8107Z" fill="#73D79C"/>
</svg>
